# xmcd CD database file
# Copyright (C) 1993-1998 Ti Kan
# 
# Track frame offsets:
#     183
#     16648
#     31885
#     46905
#     60963
#     75080
#     87028
#     99815
#     114483
#     125260
#     138640
#     150868
#     164805
#     178160
#     192208
#     205985
#     221425
#     235720
#     249208
#     262368
#     276305
#     294033
#     308628
# 
# Disc length: 4296 seconds
# 
# Revision: 1
# Processed by: cddbd v1.4b41PL1 Copyright (c) Steve Scherf et al.
# Submitted via: DiscPlay 4.0.4
# 
DISCID=2310c617
DTITLE=The Ink Spots And Guest Ella Fitzgerald - If I Didn't Care
DYEAR=1900
DGENRE=
TTITLE0=If I Didn't Care
TTITLE1=Don'T Tell A Lie About Me
TTITLE2=Every Night About This Time
TTITLE3=We Three (My Echo, My Shadow and Me)
TTITLE4=To Each His Own
TTITLE5=The Gipsy
TTITLE6=I Don't Want To set The World On Fire
TTITLE7=Maybe
TTITLE8=It's A Sin To Tell A Lie
TTITLE9=I'll Get By
TTITLE10=Whispering grass (Don't Tell The Trees)
TTITLE11=When The Swallows Come Back To Capistrano
TTITLE12=Puttin' And Takin'
TTITLE13=My Prayer
TTITLE14=Java Jive
TTITLE15=I'll Never Smile Again
TTITLE16=Time Out For Tears
TTITLE17=Cow Cow Boogie (Cuma-Ti-Yi-Yi-Ay)
TTITLE18=Street Of Dreams
TTITLE19=Into Each Life Some Rain Must Fall
TTITLE20=We'll Meet Again
TTITLE21=Someone's Rocking My Dream Boat
TTITLE22=Don't Get Around Much Anymore
EXTD=
EXTT0=
EXTT1=
EXTT2=
EXTT3=
EXTT4=
EXTT5=
EXTT6=
EXTT7=
EXTT8=
EXTT9=
EXTT10=
EXTT11=
EXTT12=
EXTT13=
EXTT14=
EXTT15=
EXTT16=
EXTT17=
EXTT18=
EXTT19=
EXTT20=
EXTT21=
EXTT22=
PLAYORDER=
